<?xml version="1.0" encoding="iso-8859-1"?>
<!-- Generator: Adobe Illustrator 16.0.0, SVG Export Plug-In . SVG Version: 6.00 Build 0)  -->
<!DOCTYPE svg PUBLIC "-//W3C//DTD SVG 1.1//EN" "http://www.w3.org/Graphics/SVG/1.1/DTD/svg11.dtd">
<svg xmlns="http://www.w3.org/2000/svg" xmlns:xlink="http://www.w3.org/1999/xlink" version="1.1" id="Capa_1" x="0px" y="0px" width="512px" height="512px" viewBox="0 0 97.536 97.536" style="enable-background:new 0 0 97.536 97.536;" xml:space="preserve">
<g>
	<g>
		<path d="M1.5,19.546h41.758c0.398,0,0.779-0.158,1.061-0.439c0.282-0.281,0.439-0.663,0.439-1.061V8.159    c0-0.829-0.672-1.5-1.5-1.5H1.5c-0.828,0-1.5,0.671-1.5,1.5v9.889C0,18.875,0.672,19.546,1.5,19.546z" fill="#FFFFFF"/>
		<path d="M1.5,43.324h41.758c0.398,0,0.779-0.158,1.061-0.439c0.282-0.281,0.439-0.663,0.439-1.061v-9.888    c0-0.829-0.672-1.5-1.5-1.5H1.5c-0.828,0-1.5,0.671-1.5,1.5v9.888C0,42.651,0.672,43.324,1.5,43.324z" fill="#FFFFFF"/>
		<path d="M95.977,77.989H1.5c-0.828,0-1.5,0.671-1.5,1.5v9.889c0,0.829,0.672,1.5,1.5,1.5h94.477c0.398,0,0.779-0.158,1.062-0.439    c0.282-0.28,0.438-0.662,0.438-1.061v-9.889C97.477,78.66,96.805,77.989,95.977,77.989z" fill="#FFFFFF"/>
		<path d="M1.522,54.211c-0.828,0-1.5,0.672-1.5,1.5V65.6c0,0.828,0.672,1.5,1.5,1.5h94.514c0.397,0,0.778-0.158,1.062-0.439    c0.281-0.281,0.438-0.663,0.438-1.061v-9.889c0-0.828-0.672-1.5-1.5-1.5H1.522z" fill="#FFFFFF"/>
		<path d="M94.004,6.659H63.76c-0.699,0-1.264,0.566-1.264,1.264v21.994l-0.354-0.01c-4.326,0-7.849,3.52-7.849,7.847    c0,4.327,3.521,7.847,7.849,7.847c4.252,0,7.77-3.459,7.842-7.686l0.004-0.121c0.002-0.016,0.002-0.031,0.002-0.047V17.782h17.783    v12.134l-0.354-0.01c-4.325,0-7.846,3.52-7.846,7.847c0,4.327,3.521,7.847,7.846,7.847c7.771,0,7.849-7.832,7.849-7.847V7.921    C95.268,7.225,94.704,6.659,94.004,6.659z" fill="#FFFFFF"/>
	</g>
</g>
<g>
</g>
<g>
</g>
<g>
</g>
<g>
</g>
<g>
</g>
<g>
</g>
<g>
</g>
<g>
</g>
<g>
</g>
<g>
</g>
<g>
</g>
<g>
</g>
<g>
</g>
<g>
</g>
<g>
</g>
</svg>
