<?xml version="1.0" encoding="UTF-8" standalone="no"?>
<svg
   xmlns:dc="http://purl.org/dc/elements/1.1/"
   xmlns:cc="http://creativecommons.org/ns#"
   xmlns:rdf="http://www.w3.org/1999/02/22-rdf-syntax-ns#"
   xmlns:svg="http://www.w3.org/2000/svg"
   xmlns="http://www.w3.org/2000/svg"
   xml:space="preserve"
   style="enable-background:new 0 0 97.536 97.536;"
   viewBox="0 0 97.536 97.536"
   height="512px"
   width="512px"
   y="0px"
   x="0px"
   id="Capa_1"
   version="1.1"><metadata
     id="metadata4274"><rdf:RDF><cc:Work
         rdf:about=""><dc:format>image/svg+xml</dc:format><dc:type
           rdf:resource="http://purl.org/dc/dcmitype/StillImage" /><dc:title></dc:title></cc:Work></rdf:RDF></metadata><defs
     id="defs4272" /><rect
     ry="7.90236"
     y="0.071718"
     x="-2.9067996e-06"
     height="98.455452"
     width="97.629478"
     id="rect4276"
     style="fill:#4b4d67;fill-opacity:1" /><g
     id="g4226"><g
       id="g4228"><path
         id="path4230"
         fill="#01ed76"
         d="M1.5,19.546h41.758c0.398,0,0.779-0.158,1.061-0.439c0.282-0.281,0.439-0.663,0.439-1.061V8.159    c0-0.829-0.672-1.5-1.5-1.5H1.5c-0.828,0-1.5,0.671-1.5,1.5v9.889C0,18.875,0.672,19.546,1.5,19.546z" /><path
         id="path4232"
         fill="#01ed76"
         d="M1.5,43.324h41.758c0.398,0,0.779-0.158,1.061-0.439c0.282-0.281,0.439-0.663,0.439-1.061v-9.888    c0-0.829-0.672-1.5-1.5-1.5H1.5c-0.828,0-1.5,0.671-1.5,1.5v9.888C0,42.651,0.672,43.324,1.5,43.324z" /><path
         id="path4234"
         fill="#01ed76"
         d="M95.977,77.989H1.5c-0.828,0-1.5,0.671-1.5,1.5v9.889c0,0.829,0.672,1.5,1.5,1.5h94.477c0.398,0,0.779-0.158,1.062-0.439    c0.282-0.28,0.438-0.662,0.438-1.061v-9.889C97.477,78.66,96.805,77.989,95.977,77.989z" /><path
         id="path4236"
         fill="#01ed76"
         d="M1.522,54.211c-0.828,0-1.5,0.672-1.5,1.5V65.6c0,0.828,0.672,1.5,1.5,1.5h94.514c0.397,0,0.778-0.158,1.062-0.439    c0.281-0.281,0.438-0.663,0.438-1.061v-9.889c0-0.828-0.672-1.5-1.5-1.5H1.522z" /><path
         id="path4238"
         fill="#01ed76"
         d="M94.004,6.659H63.76c-0.699,0-1.264,0.566-1.264,1.264v21.994l-0.354-0.01c-4.326,0-7.849,3.52-7.849,7.847    c0,4.327,3.521,7.847,7.849,7.847c4.252,0,7.77-3.459,7.842-7.686l0.004-0.121c0.002-0.016,0.002-0.031,0.002-0.047V17.782h17.783    v12.134l-0.354-0.01c-4.325,0-7.846,3.52-7.846,7.847c0,4.327,3.521,7.847,7.846,7.847c7.771,0,7.849-7.832,7.849-7.847V7.921    C95.268,7.225,94.704,6.659,94.004,6.659z" /></g></g><g
     id="g4240" /><g
     id="g4242" /><g
     id="g4244" /><g
     id="g4246" /><g
     id="g4248" /><g
     id="g4250" /><g
     id="g4252" /><g
     id="g4254" /><g
     id="g4256" /><g
     id="g4258" /><g
     id="g4260" /><g
     id="g4262" /><g
     id="g4264" /><g
     id="g4266" /><g
     id="g4268" /></svg>